<svg fill="none" height="510" viewBox="0 0 576 510" width="576" xmlns="http://www.w3.org/2000/svg" xmlns:xlink="http://www.w3.org/1999/xlink"><clipPath id="a"><path d="m0 0h433.837v291.579h-433.837z" transform="matrix(.975868 .21836126 -.21836126 .975868 80.4277 130.379)"/></clipPath><clipPath id="b"><path d="m0 0h327.296v201.649h-327.296z" transform="matrix(.86499032 .50178855 -.50178855 .86499032 273.002 .890625)"/></clipPath><g clip-path="url(#a)"><g stroke="#282728"><path d="m303.188 438.068c6.747-3.207 11.846-8.971 13.487-16.303 3.027-13.53-6.86-27.259-22.08-30.664-15.22-3.406-30.015 4.8-33.043 18.33-1.696 7.579.662 15.222 5.739 21.075l-5.147 9.457c-1.002 1.835-.315 4.16 1.521 5.155 1.836.994 4.16.315 5.155-1.521l4.324-7.956c2.244 1.491 4.742 2.715 7.451 3.612l-1.862 8.321c-.456 2.037.836 4.085 2.882 4.543 2.045.457 4.085-.837 4.543-2.882l1.896-8.475c2.692.214 5.325.073 7.848-.375l1.992 8.518c.477 2.036 2.533 3.314 4.569 2.838 2.035-.477 3.314-2.533 2.837-4.569l-2.128-9.107z" fill="#fef4dd"/><path d="m398.156 392.327c16.868 7.121 32.327 17.575 45.212 30.58.098-4.168.204-8.334.304-12.51 5.483 1.357 11.125 2.036 16.767 2.034-15.902-32.848-47.534-54.944-69.558-84.048-9.038-11.942-16.936-25.542-29.85-33.132-9.986-5.866-21.889-7.435-33.454-7.94-34.92-1.533-70.439 5.408-104.58-2.07-10.013-2.192-19.882-5.68-28.227-11.632-13.699-9.768-21.975-25.082-29.282-40.381.575-2.424 1.023-4.933 1.29-7.54 9.67 3.363 20.958 1.594 29.142-4.558-4.846-10.648-18.053-16.675-29.273-13.366-13.243-18.289-34.317-30.704-56.736-33.411-2.382-9.059-9.499-16.73-18.3556-19.781-4.6579 2.815-6.1213 9.174-4.8577 14.466 1.2713 5.293 4.6772 9.775 7.9985 14.092-8.1825 15.488-16.3634 30.969-24.5536 46.456-1.4641 2.776-2.9506 5.58-5.0729 7.893-2.3517 2.578-5.4058 4.456-7.6281 7.143-4.8434 5.854-4.7937 14.651-1.568 21.532s9.0917 12.141 15.2093 16.638c8.6643 6.372 18.1659 11.61 28.1798 15.536 4.1723 1.639 8.5933 3.066 13.0493 2.604 3.079-.324 6.042-1.72 8.114-4.028 1.673-1.862 2.245-4.344 2.999-6.663.372-1.157.794-2.319 1.44-3.357.533-.862 2.038-1.83 1.982-2.92.758 14.36 1.679 27.339-3.849 40.528-4.902 11.692-13.87 21.129-22.645 30.285-12.9617 13.52-25.9341 27.053-39.74 39.711 6.4928.14 13.0142-2.202 17.9222-6.461l-5.122 13.872c21.0568-8.807 40.0968-22.401 55.2608-39.464 2.088 5.557 6.013 10.399 11.011 13.6-10.877 18.476-21.755 36.951-32.633 55.435 6.651-2.054 13.035-4.977 18.94-8.656-1.335 4.442-2.671 8.892-4.005 13.335 18.931-13.472 34.689-31.375 45.666-51.854 52.919 31.057 117.106 42.396 177.461 31.345 10.574 18.558 22.291 36.457 35.068 53.572-.044-4.224.506-8.453 1.621-12.531 2.608 2.723 6.042 4.65 9.727 5.459-5.164-22.99-10.329-45.979-15.486-68.967 5.215-5.924 14.814-3.946 22.086-.876z" fill="#ee5e41"/><path d="m154.997 238.062c1.486-7.294-1.708-14.751-8.012-18.707l-7.397-4.645c-2.998-1.887-6.665-2.375-10.046-1.357l-.166.052-.035-.17c-.707-3.465-2.873-6.462-5.952-8.204l-9.817-5.82c-6.472-3.676-14.5512-2.956-20.2697 1.811-9.4556 7.885-8.2919 22.75 2.2727 29.069l18.108 10.997.365.22 14.269 8.525c10.574 6.313 24.215.296 26.68-11.771z" fill="#fef4dd"/><path d="m100.219 216.656-1.9331 1.431"/><path d="m135.311 222.416 7.6 4.538c4.053 2.422 5.375 7.67 2.952 11.723-2.422 4.053-7.67 5.375-11.723 2.953l-7.6-4.537c-4.053-2.423-5.367-7.669-2.952-11.724 2.424-4.061 7.67-5.375 11.715-2.954z" fill="#fff"/><path d="m123.507 234.314-2.317 1.954"/><path d="m137.589 242.734-.623 2.965"/><path d="m130.477 239.132-1.594 2.667"/><path d="m109.718 207.126 7.6 4.537c4.053 2.422 5.375 7.67 2.953 11.723-2.423 4.053-7.67 5.375-11.723 2.953l-7.6-4.537c-4.0536-2.423-5.3755-7.67-2.953-11.724 2.422-4.053 7.67-5.375 11.723-2.952z" fill="#fff"/><path d="m97.8297 219.184-2.3174 1.953"/><path d="m112.12 227.722-.623 2.965"/><path d="m104.883 223.843-1.593 2.666"/></g><path d="m116.245 211.403.964.576c2.187 1.306 2.9 4.137 1.594 6.323l-.625 1.045c-1.306 2.187-4.136 2.9-6.323 1.594l-.964-.576c-2.22-1.326-2.944-4.2-1.618-6.42l.551-.924c1.327-2.22 4.201-2.944 6.421-1.618z" fill="#282728"/><path d="m140.119 225.766.964.576c2.187 1.306 2.9 4.137 1.594 6.323l-.625 1.046c-1.306 2.186-4.136 2.9-6.323 1.594l-.964-.576c-2.22-1.327-2.944-4.201-1.618-6.421l.551-.923c1.327-2.221 4.201-2.945 6.421-1.619z" fill="#282728"/><g stroke="#282728"><path d="m362.563 313.286c12.763-.969 25.996 1.246 36.97 7.835 5.887 3.538 10.99 8.222 16.658 12.083 8.524 5.806 18.341 9.705 28.519 11.342 8.112 1.304 16.818 1.08 24.025-2.875"/><path d="m465.648 336.888c-3.855 3.538-8.342 6.384-13.179 8.373 3.61 2.518 7.915 3.854 12.224 4.769 1.624.347 3.327.631 4.93.204"/><path d="m463.055 333.553c-2.81 4.517-6.474 8.503-10.741 11.674 2.946.562 5.846 1.437 8.824 1.78 2.979.342 6.141.118 8.74-1.392"/><path d="m143.908 263.356c-7.22 6.732-13.388 14.591-18.21 23.213"/></g><path d="m73.2607 258.605c1.4766-.322 2.1521-2.974 1.5087-5.923-.6433-2.949-2.3619-5.078-3.8385-4.756s-2.152 2.974-1.5087 5.923c.6434 2.949 2.3619 5.078 3.8385 4.756z" fill="#282728"/><path d="m106.297 278.403c3.017-.075 5.433-1.36 5.395-2.871-.037-1.511-2.513-2.675-5.531-2.601-3.017.075-5.433 1.36-5.396 2.871.038 1.511 2.514 2.675 5.532 2.601z" fill="#282728"/><path d="m113.151 158.1c1.235-5.81 3.998-11.384 8.355-15.425 1.093-1.012 2.333-1.95 3.796-2.263-2.614 12.698-1.817 26.087 2.288 38.384-.137-.403-7.445-1.463-8.307-1.704-1.662-.47-5.034-.9-6.157-2.367-1.249-1.625-.82-5.751-.836-7.708-.019-2.995.237-5.985.861-8.917z" fill="#282728"/><path d="m178.913 195.038c4.251-4.147 7.504-9.449 8.592-15.292.271-1.463.409-3.021-.113-4.418-9.346 8.988-21.099 15.443-33.688 18.534.411-.102 5.208 5.518 5.875 6.121 1.282 1.154 3.443 3.777 5.285 3.946 2.04.189 5.304-2.371 6.963-3.41 2.541-1.579 4.941-3.392 7.086-5.481z" fill="#282728"/></g><g clip-path="url(#b)"><g fill="#f2f2f2"><path d="m373.293 154.611c39.084 15.639 77.519 11.444 85.847-9.369 8.328-20.814-16.603-50.3643-55.687-66.0033-39.084-15.6389-77.518-11.4441-85.847 9.3694-8.328 20.8139 16.604 50.3639 55.687 66.0029z" stroke="#282728"/><path d="m536.125 197.85c5.656-14.131-58.142-52.946-142.497-86.698-84.354-33.7524-157.319-49.6641-162.975-35.5331-3.884 9.7078 25 31.0551 70.801 54.4121-.891 12.692 25.736 33.533 62.387 48.2 36.156 14.465 69.399 17.858 78.066 8.535 52.063 15.983 90.195 21.145 94.213 11.091z" stroke="#282728"/><path d="m301.454 130.032s18.144-2.059 74.138 20.144c55.993 22.203 66.32 36.583 66.32 36.583"/></g><g stroke="#282728"><path d="m301.454 130.032s18.144-2.059 74.138 20.144c55.993 22.203 66.32 36.583 66.32 36.583"/><path d="m230.309 77.2711c2.05-7.7198 34.629-3.6534 141.89 36.9629 111.508 42.22 168.812 78.108 163.919 83.612"/><g fill="#282728"><path d="m317.406 152.484-61.42 65.895 68.068-60.971z"/><path d="m357.677 148.664-34.069 84.02 41.81-81.258z"/><path d="m413.515 188.351-9.289 88.55 17.659-89.656z"/><path d="m253.573 221.787c1.593.924 3.633.382 4.557-1.211s.382-3.633-1.211-4.557-3.633-.382-4.557 1.211-.382 3.633 1.211 4.557z"/><path d="m321.545 236.551c1.593.924 3.633.382 4.557-1.211s.382-3.633-1.211-4.557-3.633-.382-4.557 1.211-.382 3.633 1.211 4.557z"/><path d="m402.555 282.422c1.592.924 3.633.382 4.557-1.211s.382-3.633-1.211-4.557-3.633-.382-4.557 1.211c-.925 1.592-.382 3.633 1.211 4.557z"/></g></g></g></svg>